<?xml version="1.0" encoding="UTF-8"?>
<svg version="1.1" xmlns="http://www.w3.org/2000/svg" width="297" height="393">
<path d="M0 0 C98.01 0 196.02 0 297 0 C297 129.69 297 259.38 297 393 C198.99 393 100.98 393 0 393 C0 263.31 0 133.62 0 0 Z " fill="#FEFEFE" transform="translate(0,0)"/>
<path d="M0 0 C0.65178223 0.19295654 1.30356445 0.38591309 1.97509766 0.5847168 C6.32191752 1.97201176 9.6382412 3.98763194 13.375 6.5625 C15.63222387 7.67391152 17.90381787 8.75652128 20.1875 9.8125 C26.5490939 12.87542773 31.35237979 16.64695115 36.375 21.5625 C37.74292221 22.7581463 39.11778951 23.94590059 40.5 25.125 C41.79515833 26.26688515 43.08697603 27.41257345 44.375 28.5625 C44.94863281 29.06910156 45.52226562 29.57570312 46.11328125 30.09765625 C51.87199555 35.48569469 56.11727396 41.97957819 60.375 48.5625 C61.34179688 50.05523437 61.34179688 50.05523437 62.328125 51.578125 C66.83763476 58.91098 69.66125226 66.42125677 72.375 74.5625 C72.92992652 75.9197878 73.49105981 77.27458165 74.0625 78.625 C83.07808706 103.3666395 77.79348407 134.12341287 67.375 157.5625 C53.65289238 186.62877563 29.50115973 207.7625445 -0.31567383 219.38574219 C-12.40890035 223.68595258 -23.63787768 225.25283788 -36.375 225.0625 C-37.11346161 225.05662872 -37.85192322 225.05075745 -38.61276245 225.04470825 C-61.072219 224.83611399 -81.80146552 220.34588505 -100.625 207.5625 C-101.45644531 207.02625 -102.28789063 206.49 -103.14453125 205.9375 C-116.41345958 196.9231768 -127.14866665 185.09168 -135.625 171.5625 C-136.17027344 170.74394531 -136.71554688 169.92539063 -137.27734375 169.08203125 C-140.625 163.99099723 -140.625 163.99099723 -140.625 160.5625 C-141.285 160.5625 -141.945 160.5625 -142.625 160.5625 C-143.5868423 158.04295712 -144.54454241 155.52196363 -145.5 153 C-145.90412109 151.94329102 -145.90412109 151.94329102 -146.31640625 150.86523438 C-148.73558377 144.4632646 -150.96376244 138.50712998 -150.625 131.5625 C-151.285 131.5625 -151.945 131.5625 -152.625 131.5625 C-153.47624399 127.13848269 -153.7536466 122.95166294 -153.7578125 118.44921875 C-153.75876923 117.79419876 -153.75972595 117.13917877 -153.76071167 116.46430969 C-153.76138767 115.09200951 -153.75957414 113.71970602 -153.75537109 112.34741211 C-153.74997106 110.23869787 -153.75535764 108.13019245 -153.76171875 106.02148438 C-153.76105871 104.68489536 -153.75977909 103.34830648 -153.7578125 102.01171875 C-153.75668457 100.79830811 -153.75555664 99.58489746 -153.75439453 98.3347168 C-153.625 95.5625 -153.625 95.5625 -152.625 94.5625 C-152.37148498 92.58630462 -152.14855355 90.60618007 -151.9375 88.625 C-151.10195016 82.43172601 -149.60906986 76.7349277 -147.625 70.8125 C-147.36372314 70.02625244 -147.10244629 69.24000488 -146.83325195 68.42993164 C-144.89629181 62.83379181 -144.89629181 62.83379181 -142.625 60.5625 C-141.91887809 58.609309 -141.21296611 56.65604145 -140.50878906 54.70214844 C-139.1267643 51.35627412 -137.14873434 48.58210347 -135 45.6875 C-134.56123535 45.08599121 -134.1224707 44.48448242 -133.67041016 43.86474609 C-129.6585242 38.44776236 -125.29308501 33.42544155 -120.625 28.5625 C-119.94566406 27.84320313 -119.26632813 27.12390625 -118.56640625 26.3828125 C-106.25654999 13.66502728 -90.55448536 4.62083883 -73.625 -0.4375 C-72.305 -0.4375 -70.985 -0.4375 -69.625 -0.4375 C-69.625 -1.0975 -69.625 -1.7575 -69.625 -2.4375 C-46.60392238 -8.00711555 -22.57567003 -6.72295889 0 0 Z " fill="#FCFCFC" transform="translate(181.625,82.4375)"/>
<path d="M0 0 C0.65178223 0.19295654 1.30356445 0.38591309 1.97509766 0.5847168 C6.32191752 1.97201176 9.6382412 3.98763194 13.375 6.5625 C15.63222387 7.67391152 17.90381787 8.75652128 20.1875 9.8125 C26.5490939 12.87542773 31.35237979 16.64695115 36.375 21.5625 C37.74292221 22.7581463 39.11778951 23.94590059 40.5 25.125 C41.79515833 26.26688515 43.08697603 27.41257345 44.375 28.5625 C44.94863281 29.06910156 45.52226562 29.57570312 46.11328125 30.09765625 C51.87199555 35.48569469 56.11727396 41.97957819 60.375 48.5625 C61.34179688 50.05523437 61.34179688 50.05523437 62.328125 51.578125 C66.83763476 58.91098 69.66125226 66.42125677 72.375 74.5625 C72.92992652 75.9197878 73.49105981 77.27458165 74.0625 78.625 C83.07808706 103.3666395 77.79348407 134.12341287 67.375 157.5625 C53.65289238 186.62877563 29.50115973 207.7625445 -0.31567383 219.38574219 C-12.40890035 223.68595258 -23.63787768 225.25283788 -36.375 225.0625 C-37.11346161 225.05662872 -37.85192322 225.05075745 -38.61276245 225.04470825 C-61.072219 224.83611399 -81.80146552 220.34588505 -100.625 207.5625 C-101.45644531 207.02625 -102.28789063 206.49 -103.14453125 205.9375 C-116.41345958 196.9231768 -127.14866665 185.09168 -135.625 171.5625 C-136.17027344 170.74394531 -136.71554688 169.92539063 -137.27734375 169.08203125 C-140.625 163.99099723 -140.625 163.99099723 -140.625 160.5625 C-141.285 160.5625 -141.945 160.5625 -142.625 160.5625 C-143.5868423 158.04295712 -144.54454241 155.52196363 -145.5 153 C-145.90412109 151.94329102 -145.90412109 151.94329102 -146.31640625 150.86523438 C-148.73558377 144.4632646 -150.96376244 138.50712998 -150.625 131.5625 C-151.285 131.5625 -151.945 131.5625 -152.625 131.5625 C-153.47624399 127.13848269 -153.7536466 122.95166294 -153.7578125 118.44921875 C-153.75876923 117.79419876 -153.75972595 117.13917877 -153.76071167 116.46430969 C-153.76138767 115.09200951 -153.75957414 113.71970602 -153.75537109 112.34741211 C-153.74997106 110.23869787 -153.75535764 108.13019245 -153.76171875 106.02148438 C-153.76105871 104.68489536 -153.75977909 103.34830648 -153.7578125 102.01171875 C-153.75668457 100.79830811 -153.75555664 99.58489746 -153.75439453 98.3347168 C-153.625 95.5625 -153.625 95.5625 -152.625 94.5625 C-152.37148498 92.58630462 -152.14855355 90.60618007 -151.9375 88.625 C-151.10195016 82.43172601 -149.60906986 76.7349277 -147.625 70.8125 C-147.36372314 70.02625244 -147.10244629 69.24000488 -146.83325195 68.42993164 C-144.89629181 62.83379181 -144.89629181 62.83379181 -142.625 60.5625 C-141.91887809 58.609309 -141.21296611 56.65604145 -140.50878906 54.70214844 C-139.1267643 51.35627412 -137.14873434 48.58210347 -135 45.6875 C-134.56123535 45.08599121 -134.1224707 44.48448242 -133.67041016 43.86474609 C-129.6585242 38.44776236 -125.29308501 33.42544155 -120.625 28.5625 C-119.94566406 27.84320313 -119.26632813 27.12390625 -118.56640625 26.3828125 C-106.25654999 13.66502728 -90.55448536 4.62083883 -73.625 -0.4375 C-72.305 -0.4375 -70.985 -0.4375 -69.625 -0.4375 C-69.625 -1.0975 -69.625 -1.7575 -69.625 -2.4375 C-46.60392238 -8.00711555 -22.57567003 -6.72295889 0 0 Z M-73.625 16.5625 C-73.625 17.2225 -73.625 17.8825 -73.625 18.5625 C-74.73875 18.789375 -75.8525 19.01625 -77 19.25 C-85.29374177 21.38516645 -92.00159602 25.61712583 -98.75 30.75 C-99.33096436 31.19021484 -99.91192871 31.63042969 -100.51049805 32.08398438 C-101.9240428 33.19184609 -103.28047716 34.37181755 -104.625 35.5625 C-104.625 36.2225 -104.625 36.8825 -104.625 37.5625 C-105.285 37.5625 -105.945 37.5625 -106.625 37.5625 C-109.17281813 40.02768619 -111.361375 42.83727303 -113.625 45.5625 C-114.61113281 46.71878906 -114.61113281 46.71878906 -115.6171875 47.8984375 C-123.9267794 57.88934761 -129.43362299 68.16040825 -133.0222168 80.58935547 C-133.441949 81.96330268 -133.91402379 83.321882 -134.42504883 84.66455078 C-137.304194 92.72276505 -136.9612246 100.76351434 -136.8125 109.1875 C-136.7974192 110.68358021 -136.78373683 112.1796752 -136.77148438 113.67578125 C-136.73876305 117.30499968 -136.68717056 120.93365248 -136.625 124.5625 C-135.965 124.5625 -135.305 124.5625 -134.625 124.5625 C-134.58761719 125.38492188 -134.55023438 126.20734375 -134.51171875 127.0546875 C-133.92604546 136.99964963 -132.56389828 145.24349367 -126.9296875 153.578125 C-125.58803525 155.61872183 -124.49125877 157.70406914 -123.375 159.875 C-115.83337154 173.51063784 -102.96271539 186.49872365 -89.625 194.5625 C-88.53960937 195.23023438 -87.45421875 195.89796875 -86.3359375 196.5859375 C-64.16022869 209.66010659 -36.19453315 211.12112334 -11.31640625 205.6484375 C13.57031731 198.3272638 34.8341029 181.13390248 47.51757812 158.52587891 C48.66570964 156.40591525 49.77984107 154.27277782 50.875 152.125 C51.21370117 151.46274414 51.55240234 150.80048828 51.90136719 150.11816406 C53.77982513 146.27754487 54.9020893 142.8121281 55.375 138.5625 C56.035 138.5625 56.695 138.5625 57.375 138.5625 C60.06154587 129.01566736 60.67660577 119.83286392 60.6875 109.9375 C60.69265625 108.81883545 60.6978125 107.7001709 60.703125 106.54760742 C60.58896199 92.61666259 58.68810578 79.59947681 51.375 67.5625 C50.983125 66.551875 50.59125 65.54125 50.1875 64.5 C43.14568907 47.94995705 28.19782322 34.24341071 12.875 25.4375 C12.14152344 25.00824219 11.40804687 24.57898438 10.65234375 24.13671875 C-13.79328892 9.92414161 -47.00822989 4.55249398 -73.625 16.5625 Z " fill="#0A0A0A" transform="translate(181.625,82.4375)"/>
<path d="M0 0 C-2.80696441 2.85229165 -5.60587457 5.60824518 -8.71484375 8.12890625 C-9.73324341 8.95974731 -9.73324341 8.95974731 -10.7722168 9.80737305 C-11.48676025 10.38656494 -12.20130371 10.96575684 -12.9375 11.5625 C-18.41747799 16.03466594 -23.84464187 20.55243681 -29.1875 25.1875 C-34.27666016 29.59239112 -39.4918055 33.79344088 -44.81005859 37.91772461 C-49.4571081 41.53463677 -53.95410947 45.30525571 -58.42871094 49.13232422 C-62.84497511 52.89946069 -67.37268522 56.49663248 -72 60 C-73 57 -73 57 -72.13671875 55.265625 C-71.65847656 54.60046875 -71.18023437 53.9353125 -70.6875 53.25 C-70.12933594 52.45335937 -69.57117188 51.65671875 -68.99609375 50.8359375 C-68.33738281 49.90007812 -67.67867188 48.96421875 -67 48 C-65.40350482 45.63372841 -63.82764271 43.25386837 -62.25 40.875 C-61.37794471 39.56617929 -60.50554391 38.25758872 -59.6328125 36.94921875 C-59.19485352 36.29228027 -58.75689453 35.6353418 -58.30566406 34.95849609 C-56.43017578 32.14526367 -56.43017578 32.14526367 -54.5546875 29.33203125 C-54.15677002 28.73092529 -53.75885254 28.12981934 -53.34887695 27.51049805 C-52.52712025 26.28646906 -51.68935958 25.07304641 -50.83666992 23.87036133 C-48.39013724 20.36921748 -46.53486264 17.0215541 -44.93359375 13.0546875 C-36.41291546 -5.89913697 -17.84472667 -1.6864564 0 0 Z " fill="#0D0D0D" transform="translate(171,198)"/>
<path d="M0 0 C0.99 0.495 0.99 0.495 2 1 C1.62230469 1.52464844 1.24460937 2.04929688 0.85546875 2.58984375 C-2.92502558 7.91086738 -6.5337274 13.32315594 -10.0625 18.8125 C-14.40196846 25.55888012 -18.8025106 32.26180711 -23.25 38.9375 C-23.815979 39.78868408 -24.38195801 40.63986816 -24.96508789 41.5168457 C-35.89821249 57.89821249 -35.89821249 57.89821249 -38 60 C-40.3756852 60.0883967 -42.72208674 60.11530305 -45.09765625 60.09765625 C-46.16094398 60.09553383 -46.16094398 60.09553383 -47.24571228 60.09336853 C-49.51801712 60.08775443 -51.79022475 60.07519963 -54.0625 60.0625 C-55.59960796 60.05748681 -57.13671745 60.05292359 -58.67382812 60.04882812 C-62.44925642 60.03778042 -66.22461171 60.02050641 -70 60 C-68.63760782 57.15776803 -67.44766831 55.03972359 -65 53 C-64.34 53 -63.68 53 -63 53 C-63 52.34 -63 51.68 -63 51 C-61.48828125 49.66015625 -61.48828125 49.66015625 -59.3125 48.0625 C-55.27869849 45.0181215 -51.40184439 41.84474757 -47.5625 38.5625 C-42.93111681 34.61446859 -38.24516547 30.75491952 -33.4765625 26.97265625 C-30.71640695 24.77410963 -27.98125903 22.54683185 -25.25 20.3125 C-24.33863281 19.56742188 -23.42726562 18.82234375 -22.48828125 18.0546875 C-20.44991212 16.37151299 -18.4402492 14.66249566 -16.4375 12.9375 C-14 11 -14 11 -12 11 C-12 10.34 -12 9.68 -12 9 C-10.03062339 7.37643654 -8.06654852 5.86440434 -6 4.375 C-5.14148438 3.74464844 -5.14148438 3.74464844 -4.265625 3.1015625 C-2.84796067 2.06194199 -1.42450738 1.03022409 0 0 Z " fill="#0A0A0A" transform="translate(188,126)"/>
<path d="M0 0 C8.13107049 12.19660574 5.31126112 32.15925574 5 46 C4.67 46 4.34 46 4 46 C3.98018066 45.36610352 3.96036133 44.73220703 3.93994141 44.07910156 C3.69692753 25.79621377 3.69692753 25.79621377 0 8 C-0.12781786 5.32605036 -0.04391871 2.67904143 0 0 Z " fill="#454545" transform="translate(254,158)"/>
<path d="M0 0 C0.66 0.33 1.32 0.66 2 1 C-0.475 4.465 -0.475 4.465 -3 8 C-3.33 7.34 -3.66 6.68 -4 6 C-5.32 6.99 -6.64 7.98 -8 9 C-8.66 8.67 -9.32 8.34 -10 8 C-6.7 5.36 -3.4 2.72 0 0 Z " fill="#454545" transform="translate(188,126)"/>
<path d="M0 0 C1.83979073 2.7596861 2.48323221 4.29741882 3.1875 7.4375 C3.45626953 8.58025391 3.45626953 8.58025391 3.73046875 9.74609375 C4.0154963 12.12958496 3.72875415 13.73104204 3 16 C0.54970669 10.28264895 -0.33266291 6.20970773 0 0 Z " fill="#666666" transform="translate(254,158)"/>
<path d="M0 0 C0.66 0.33 1.32 0.66 2 1 C0.92643323 2.15498897 -0.15929788 3.29867867 -1.25 4.4375 C-1.85328125 5.07558594 -2.4565625 5.71367187 -3.078125 6.37109375 C-5.10048016 8.08516306 -6.41270605 8.59358878 -9 9 C-6 6 -3 3 0 0 Z " fill="#CBCBCB" transform="translate(139,224)"/>
</svg>
